<mxfile host="drawio-plugin" modified="2023-11-04T14:13:58.093Z" agent="5.0 (X11; Linux x86_64) AppleWebKit/537.36 (KHTML, like Gecko) Chrome/111.0.0.0 Safari/537.36" etag="9We-Vaxv3olVwoA7iUDZ" version="20.5.3" type="embed"><diagram id="23iRSUPoRavnBvh4doch" name="Page-1"><mxGraphModel dx="690" dy="70" grid="0" gridSize="10" guides="1" tooltips="1" connect="1" arrows="1" fold="1" page="0" pageScale="1" pageWidth="100000" pageHeight="100000" background="#ffffff" math="0" shadow="0"><root><mxCell id="0"/><mxCell id="1" parent="0"/><mxCell id="10" value="IS CANE" style="shape=umlFrame;whiteSpace=wrap;html=1;height=52;fillColor=#FAE5C7;strokeColor=#0F8B8D;fontColor=#143642;width=150;" parent="1" vertex="1"><mxGeometry x="1968" y="1559" width="1280" height="966" as="geometry"/></mxCell><mxCell id="2" value="Zpráva" style="swimlane;fontStyle=1;align=center;verticalAlign=top;childLayout=stackLayout;horizontal=1;startSize=26;horizontalStack=0;resizeParent=1;resizeParentMax=0;resizeLast=0;collapsible=1;marginBottom=0;fillColor=#FAE5C7;strokeColor=#0F8B8D;fontColor=#143642;" parent="1" vertex="1"><mxGeometry x="2020" y="2057" width="206" height="154" as="geometry"><mxRectangle x="2080" y="2160" width="74" height="26" as="alternateBounds"/></mxGeometry></mxCell><mxCell id="43" value="&lt;&lt;PK&gt;&gt; URL" style="text;strokeColor=none;fillColor=none;align=left;verticalAlign=top;spacingLeft=4;spacingRight=4;overflow=hidden;rotatable=0;points=[[0,0.5],[1,0.5]];portConstraint=eastwest;fontColor=#143642;" parent="2" vertex="1"><mxGeometry y="26" width="206" height="24" as="geometry"/></mxCell><mxCell id="45" value="datum a čas zveřejnění &#10;" style="text;strokeColor=none;fillColor=none;align=left;verticalAlign=top;spacingLeft=4;spacingRight=4;overflow=hidden;rotatable=0;points=[[0,0.5],[1,0.5]];portConstraint=eastwest;fontColor=#143642;" parent="2" vertex="1"><mxGeometry y="50" width="206" height="24" as="geometry"/></mxCell><mxCell id="3" value="autor" style="text;strokeColor=none;fillColor=none;align=left;verticalAlign=top;spacingLeft=4;spacingRight=4;overflow=hidden;rotatable=0;points=[[0,0.5],[1,0.5]];portConstraint=eastwest;fontColor=#143642;" parent="2" vertex="1"><mxGeometry y="74" width="206" height="24" as="geometry"/></mxCell><mxCell id="42" value="datum a čas uložení" style="text;strokeColor=none;fillColor=none;align=left;verticalAlign=top;spacingLeft=4;spacingRight=4;overflow=hidden;rotatable=0;points=[[0,0.5],[1,0.5]];portConstraint=eastwest;fontColor=#143642;" parent="2" vertex="1"><mxGeometry y="98" width="206" height="24" as="geometry"/></mxCell><mxCell id="46" value="nehodnocen//nespokojen/hodnocen&#10;" style="text;strokeColor=none;fillColor=none;align=left;verticalAlign=top;spacingLeft=4;spacingRight=4;overflow=hidden;rotatable=0;points=[[0,0.5],[1,0.5]];portConstraint=eastwest;fontColor=#143642;" parent="2" vertex="1"><mxGeometry y="122" width="206" height="24" as="geometry"/></mxCell><mxCell id="4" value="" style="line;strokeWidth=1;fillColor=none;align=left;verticalAlign=middle;spacingTop=-1;spacingLeft=3;spacingRight=3;rotatable=0;labelPosition=right;points=[];portConstraint=eastwest;strokeColor=#0F8B8D;labelBackgroundColor=#DAD2D8;fontColor=#143642;" parent="2" vertex="1"><mxGeometry y="146" width="206" height="8" as="geometry"/></mxCell><mxCell id="47" value="DOOM Člen" style="swimlane;fontStyle=1;align=center;verticalAlign=top;childLayout=stackLayout;horizontal=1;startSize=26;horizontalStack=0;resizeParent=1;resizeParentMax=0;resizeLast=0;collapsible=1;marginBottom=0;fillColor=#FAE5C7;strokeColor=#0F8B8D;fontColor=#143642;" parent="1" vertex="1"><mxGeometry x="2916" y="1854" width="160" height="60" as="geometry"/></mxCell><mxCell id="49" value="" style="line;strokeWidth=1;fillColor=none;align=left;verticalAlign=middle;spacingTop=-1;spacingLeft=3;spacingRight=3;rotatable=0;labelPosition=right;points=[];portConstraint=eastwest;strokeColor=#0F8B8D;labelBackgroundColor=#DAD2D8;fontColor=#143642;" parent="47" vertex="1"><mxGeometry y="26" width="160" height="8" as="geometry"/></mxCell><mxCell id="166" value="odevzdaniPosudku(Posudek) " style="text;strokeColor=none;fillColor=none;align=left;verticalAlign=top;spacingLeft=4;spacingRight=4;overflow=hidden;rotatable=0;points=[[0,0.5],[1,0.5]];portConstraint=eastwest;fontFamily=Helvetica;fontSize=11;fontColor=#143642;" parent="47" vertex="1"><mxGeometry y="34" width="160" height="26" as="geometry"/></mxCell><mxCell id="64" value="Uživatel" style="swimlane;fontStyle=1;align=center;verticalAlign=top;childLayout=stackLayout;horizontal=1;startSize=26;horizontalStack=0;resizeParent=1;resizeParentMax=0;resizeLast=0;collapsible=1;marginBottom=0;fillColor=#FAE5C7;strokeColor=#0F8B8D;fontColor=#143642;" parent="1" vertex="1"><mxGeometry x="3329" y="2159" width="160" height="34" as="geometry"/></mxCell><mxCell id="66" value="" style="line;strokeWidth=1;fillColor=none;align=left;verticalAlign=middle;spacingTop=-1;spacingLeft=3;spacingRight=3;rotatable=0;labelPosition=right;points=[];portConstraint=eastwest;strokeColor=#0F8B8D;labelBackgroundColor=#DAD2D8;fontColor=#143642;" parent="64" vertex="1"><mxGeometry y="26" width="160" height="8" as="geometry"/></mxCell><mxCell id="68" value="«interface»&lt;br&gt;&lt;b&gt;web&lt;/b&gt;" style="html=1;fillColor=#FAE5C7;strokeColor=#0F8B8D;fontColor=#143642;" parent="1" vertex="1"><mxGeometry x="3329" y="2299" width="110" height="50" as="geometry"/></mxCell><mxCell id="70" value="" style="endArrow=none;html=1;rounded=0;labelBackgroundColor=#DAD2D8;strokeColor=#A8201A;fontColor=#143642;" parent="1" source="68" target="64" edge="1"><mxGeometry relative="1" as="geometry"><mxPoint x="3019" y="2149" as="sourcePoint"/><mxPoint x="3179" y="2149" as="targetPoint"/></mxGeometry></mxCell><mxCell id="71" value="1" style="resizable=0;html=1;align=right;verticalAlign=bottom;fillColor=#FAE5C7;strokeColor=#0F8B8D;fontColor=#143642;" parent="70" connectable="0" vertex="1"><mxGeometry x="1" relative="1" as="geometry"/></mxCell><mxCell id="74" value="Vedoucí DOOM" style="swimlane;fontStyle=1;align=center;verticalAlign=top;childLayout=stackLayout;horizontal=1;startSize=26;horizontalStack=0;resizeParent=1;resizeParentMax=0;resizeLast=0;collapsible=1;marginBottom=0;fillColor=#FAE5C7;strokeColor=#0F8B8D;fontColor=#143642;" parent="1" vertex="1"><mxGeometry x="2683" y="1931" width="269" height="86" as="geometry"/></mxCell><mxCell id="76" value="" style="line;strokeWidth=1;fillColor=none;align=left;verticalAlign=middle;spacingTop=-1;spacingLeft=3;spacingRight=3;rotatable=0;labelPosition=right;points=[];portConstraint=eastwest;strokeColor=#0F8B8D;labelBackgroundColor=#DAD2D8;fontColor=#143642;" parent="74" vertex="1"><mxGeometry y="26" width="269" height="8" as="geometry"/></mxCell><mxCell id="162" value="prirazeniHodnoceni(Posudek) " style="text;strokeColor=none;fillColor=none;align=left;verticalAlign=top;spacingLeft=4;spacingRight=4;overflow=hidden;rotatable=0;points=[[0,0.5],[1,0.5]];portConstraint=eastwest;fontFamily=Helvetica;fontSize=11;fontColor=#143642;" parent="74" vertex="1"><mxGeometry y="34" width="269" height="26" as="geometry"/></mxCell><mxCell id="165" value="prirazeniHodnoticiho(DOOM Člen, Skupina zpráv) " style="text;strokeColor=none;fillColor=none;align=left;verticalAlign=top;spacingLeft=4;spacingRight=4;overflow=hidden;rotatable=0;points=[[0,0.5],[1,0.5]];portConstraint=eastwest;fontFamily=Helvetica;fontSize=11;fontColor=#143642;" parent="74" vertex="1"><mxGeometry y="60" width="269" height="26" as="geometry"/></mxCell><mxCell id="83" value="Upřesnění&#10;" style="swimlane;fontStyle=1;align=center;verticalAlign=top;childLayout=stackLayout;horizontal=1;startSize=26;horizontalStack=0;resizeParent=1;resizeParentMax=0;resizeLast=0;collapsible=1;marginBottom=0;fillColor=#FAE5C7;strokeColor=#0F8B8D;fontColor=#143642;" parent="1" vertex="1"><mxGeometry x="2382" y="2258" width="160" height="63" as="geometry"/></mxCell><mxCell id="141" value="upřesnění" style="text;strokeColor=none;fillColor=none;align=left;verticalAlign=top;spacingLeft=4;spacingRight=4;overflow=hidden;rotatable=0;points=[[0,0.5],[1,0.5]];portConstraint=eastwest;fontColor=#143642;" parent="83" vertex="1"><mxGeometry y="26" width="160" height="29" as="geometry"/></mxCell><mxCell id="85" value="" style="line;strokeWidth=1;fillColor=none;align=left;verticalAlign=middle;spacingTop=-1;spacingLeft=3;spacingRight=3;rotatable=0;labelPosition=right;points=[];portConstraint=eastwest;strokeColor=#0F8B8D;labelBackgroundColor=#DAD2D8;fontColor=#143642;" parent="83" vertex="1"><mxGeometry y="55" width="160" height="8" as="geometry"/></mxCell><mxCell id="97" value="Osoba" style="swimlane;fontStyle=1;align=center;verticalAlign=top;childLayout=stackLayout;horizontal=1;startSize=26;horizontalStack=0;resizeParent=1;resizeParentMax=0;resizeLast=0;collapsible=1;marginBottom=0;fillColor=#FAE5C7;strokeColor=#0F8B8D;fontColor=#143642;" parent="1" vertex="1"><mxGeometry x="2636.03" y="1604" width="160" height="216" as="geometry"/></mxCell><mxCell id="98" value="&lt;&lt;PK&gt;&gt; osobní číslo&#10;" style="text;strokeColor=none;fillColor=none;align=left;verticalAlign=top;spacingLeft=4;spacingRight=4;overflow=hidden;rotatable=0;points=[[0,0.5],[1,0.5]];portConstraint=eastwest;fontColor=#143642;" parent="97" vertex="1"><mxGeometry y="26" width="160" height="26" as="geometry"/></mxCell><mxCell id="102" value="psedonym" style="text;strokeColor=none;fillColor=none;align=left;verticalAlign=top;spacingLeft=4;spacingRight=4;overflow=hidden;rotatable=0;points=[[0,0.5],[1,0.5]];portConstraint=eastwest;fontColor=#143642;" parent="97" vertex="1"><mxGeometry y="52" width="160" height="26" as="geometry"/></mxCell><mxCell id="103" value="jméno, příjmení" style="text;strokeColor=none;fillColor=none;align=left;verticalAlign=top;spacingLeft=4;spacingRight=4;overflow=hidden;rotatable=0;points=[[0,0.5],[1,0.5]];portConstraint=eastwest;fontColor=#143642;" parent="97" vertex="1"><mxGeometry y="78" width="160" height="26" as="geometry"/></mxCell><mxCell id="104" value="email&#10;" style="text;strokeColor=none;fillColor=none;align=left;verticalAlign=top;spacingLeft=4;spacingRight=4;overflow=hidden;rotatable=0;points=[[0,0.5],[1,0.5]];portConstraint=eastwest;fontColor=#143642;" parent="97" vertex="1"><mxGeometry y="104" width="160" height="26" as="geometry"/></mxCell><mxCell id="105" value="telefon" style="text;strokeColor=none;fillColor=none;align=left;verticalAlign=top;spacingLeft=4;spacingRight=4;overflow=hidden;rotatable=0;points=[[0,0.5],[1,0.5]];portConstraint=eastwest;fontColor=#143642;" parent="97" vertex="1"><mxGeometry y="130" width="160" height="26" as="geometry"/></mxCell><mxCell id="106" value="facebook účet" style="text;strokeColor=none;fillColor=none;align=left;verticalAlign=top;spacingLeft=4;spacingRight=4;overflow=hidden;rotatable=0;points=[[0,0.5],[1,0.5]];portConstraint=eastwest;fontColor=#143642;" parent="97" vertex="1"><mxGeometry y="156" width="160" height="26" as="geometry"/></mxCell><mxCell id="94" value="twitter účet" style="text;strokeColor=none;fillColor=none;align=left;verticalAlign=top;spacingLeft=4;spacingRight=4;overflow=hidden;rotatable=0;points=[[0,0.5],[1,0.5]];portConstraint=eastwest;fontColor=#143642;" parent="97" vertex="1"><mxGeometry y="182" width="160" height="26" as="geometry"/></mxCell><mxCell id="99" value="" style="line;strokeWidth=1;fillColor=none;align=left;verticalAlign=middle;spacingTop=-1;spacingLeft=3;spacingRight=3;rotatable=0;labelPosition=right;points=[];portConstraint=eastwest;strokeColor=#0F8B8D;labelBackgroundColor=#DAD2D8;fontColor=#143642;" parent="97" vertex="1"><mxGeometry y="208" width="160" height="8" as="geometry"/></mxCell><mxCell id="117" value="" style="fontSize=12;html=1;endArrow=ERmany;rounded=0;strokeColor=#A8201A;fontColor=#143642;fillColor=#FAE5C7;edgeStyle=orthogonalEdgeStyle;" parent="1" source="118" target="83" edge="1"><mxGeometry width="100" height="100" relative="1" as="geometry"><mxPoint x="2522" y="2499" as="sourcePoint"/><mxPoint x="2622" y="2399" as="targetPoint"/><Array as="points"><mxPoint x="2592" y="2235"/><mxPoint x="2592" y="2303"/></Array></mxGeometry></mxCell><mxCell id="118" value="Posudek&#10;" style="swimlane;fontStyle=1;align=center;verticalAlign=top;childLayout=stackLayout;horizontal=1;startSize=26;horizontalStack=0;resizeParent=1;resizeParentMax=0;resizeLast=0;collapsible=1;marginBottom=0;fillColor=#FAE5C7;strokeColor=#0F8B8D;fontColor=#143642;" parent="1" vertex="1"><mxGeometry x="2790" y="2130" width="386" height="162" as="geometry"/></mxCell><mxCell id="238" value="&lt;&lt;PK&gt;&gt; ID " style="text;strokeColor=none;fillColor=none;align=left;verticalAlign=top;spacingLeft=4;spacingRight=4;overflow=hidden;rotatable=0;points=[[0,0.5],[1,0.5]];portConstraint=eastwest;fontColor=#143642;" parent="118" vertex="1"><mxGeometry y="26" width="386" height="24" as="geometry"/></mxCell><mxCell id="53" value="pořadí&#10;" style="text;strokeColor=none;fillColor=none;align=left;verticalAlign=top;spacingLeft=4;spacingRight=4;overflow=hidden;rotatable=0;points=[[0,0.5],[1,0.5]];portConstraint=eastwest;fontColor=#143642;" parent="118" vertex="1"><mxGeometry y="50" width="386" height="26" as="geometry"/></mxCell><mxCell id="54" value="odůvodnění&#10;" style="text;strokeColor=none;fillColor=none;align=left;verticalAlign=top;spacingLeft=4;spacingRight=4;overflow=hidden;rotatable=0;points=[[0,0.5],[1,0.5]];portConstraint=eastwest;fontColor=#143642;" parent="118" vertex="1"><mxGeometry y="76" width="386" height="26" as="geometry"/></mxCell><mxCell id="167" value="datum a čas vypracování" style="text;strokeColor=none;fillColor=none;align=left;verticalAlign=top;spacingLeft=4;spacingRight=4;overflow=hidden;rotatable=0;points=[[0,0.5],[1,0.5]];portConstraint=eastwest;fontColor=#143642;" parent="118" vertex="1"><mxGeometry y="102" width="386" height="26" as="geometry"/></mxCell><mxCell id="78" value="navržené hodnocení: pravdiva/nepravdiva/zavadějící/neověřitelna&#10;" style="text;strokeColor=none;fillColor=none;align=left;verticalAlign=top;spacingLeft=4;spacingRight=4;overflow=hidden;rotatable=0;points=[[0,0.5],[1,0.5]];portConstraint=eastwest;fontColor=#143642;" parent="118" vertex="1"><mxGeometry y="128" width="386" height="26" as="geometry"/></mxCell><mxCell id="120" value="" style="line;strokeWidth=1;fillColor=none;align=left;verticalAlign=middle;spacingTop=-1;spacingLeft=3;spacingRight=3;rotatable=0;labelPosition=right;points=[];portConstraint=eastwest;strokeColor=#0F8B8D;labelBackgroundColor=#DAD2D8;fontColor=#143642;" parent="118" vertex="1"><mxGeometry y="154" width="386" height="8" as="geometry"/></mxCell><mxCell id="121" value="Skupina Zpráv&#10;" style="swimlane;fontStyle=1;align=center;verticalAlign=top;childLayout=stackLayout;horizontal=1;startSize=26;horizontalStack=0;resizeParent=1;resizeParentMax=0;resizeLast=0;collapsible=1;marginBottom=0;fillColor=#FAE5C7;strokeColor=#0F8B8D;fontColor=#143642;" parent="1" vertex="1"><mxGeometry x="2375" y="2121" width="160" height="108" as="geometry"/></mxCell><mxCell id="44" value="&lt;&lt;PK&gt;&gt; ID " style="text;strokeColor=none;fillColor=none;align=left;verticalAlign=top;spacingLeft=4;spacingRight=4;overflow=hidden;rotatable=0;points=[[0,0.5],[1,0.5]];portConstraint=eastwest;fontColor=#143642;" parent="121" vertex="1"><mxGeometry y="26" width="160" height="24" as="geometry"/></mxCell><mxCell id="237" value="&lt;unikátní&gt; název" style="text;strokeColor=none;fillColor=none;align=left;verticalAlign=top;spacingLeft=4;spacingRight=4;overflow=hidden;rotatable=0;points=[[0,0.5],[1,0.5]];portConstraint=eastwest;fontColor=#143642;" parent="121" vertex="1"><mxGeometry y="50" width="160" height="24" as="geometry"/></mxCell><mxCell id="7" value="text (zjednodušeny)" style="text;strokeColor=none;fillColor=none;align=left;verticalAlign=top;spacingLeft=4;spacingRight=4;overflow=hidden;rotatable=0;points=[[0,0.5],[1,0.5]];portConstraint=eastwest;fontColor=#143642;" parent="121" vertex="1"><mxGeometry y="74" width="160" height="26" as="geometry"/></mxCell><mxCell id="122" value="" style="line;strokeWidth=1;fillColor=none;align=left;verticalAlign=middle;spacingTop=-1;spacingLeft=3;spacingRight=3;rotatable=0;labelPosition=right;points=[];portConstraint=eastwest;strokeColor=#0F8B8D;labelBackgroundColor=#DAD2D8;fontColor=#143642;" parent="121" vertex="1"><mxGeometry y="100" width="160" height="8" as="geometry"/></mxCell><mxCell id="132" value="Bot" style="swimlane;fontStyle=1;align=center;verticalAlign=top;childLayout=stackLayout;horizontal=1;startSize=26;horizontalStack=0;resizeParent=1;resizeParentMax=0;resizeLast=0;collapsible=1;marginBottom=0;fillColor=#FAE5C7;strokeColor=#0F8B8D;fontColor=#143642;" parent="1" vertex="1"><mxGeometry x="1676" y="2104" width="160" height="60" as="geometry"/></mxCell><mxCell id="16" value="&lt;&lt;PK&gt;&gt; ID&#10;" style="text;strokeColor=none;fillColor=none;align=left;verticalAlign=top;spacingLeft=4;spacingRight=4;overflow=hidden;rotatable=0;points=[[0,0.5],[1,0.5]];portConstraint=eastwest;fontColor=#143642;" parent="132" vertex="1"><mxGeometry y="26" width="160" height="26" as="geometry"/></mxCell><mxCell id="134" value="" style="line;strokeWidth=1;fillColor=none;align=left;verticalAlign=middle;spacingTop=-1;spacingLeft=3;spacingRight=3;rotatable=0;labelPosition=right;points=[];portConstraint=eastwest;strokeColor=#0F8B8D;labelBackgroundColor=#DAD2D8;fontColor=#143642;" parent="132" vertex="1"><mxGeometry y="52" width="160" height="8" as="geometry"/></mxCell><mxCell id="142" value="0...*" style="resizable=0;html=1;align=right;verticalAlign=bottom;fillColor=#FAE5C7;strokeColor=#0F8B8D;fontColor=#143642;" parent="1" connectable="0" vertex="1"><mxGeometry x="2567.996907216495" y="2299" as="geometry"/></mxCell><mxCell id="143" value="1" style="resizable=0;html=1;align=right;verticalAlign=bottom;fillColor=#FAE5C7;strokeColor=#0F8B8D;fontColor=#143642;" parent="1" connectable="0" vertex="1"><mxGeometry x="2770.996907216495" y="2232" as="geometry"/></mxCell><mxCell id="145" value="" style="endArrow=none;html=1;rounded=0;labelBackgroundColor=default;strokeColor=#A8201A;fontFamily=Helvetica;fontSize=11;fontColor=#143642;fillColor=#FAE5C7;shape=connector;elbow=vertical;startArrow=ERmany;startFill=0;" parent="1" source="2" target="121" edge="1"><mxGeometry relative="1" as="geometry"><mxPoint x="2296" y="2154" as="sourcePoint"/><mxPoint x="2456" y="2154" as="targetPoint"/></mxGeometry></mxCell><mxCell id="146" value="*" style="resizable=0;html=1;align=left;verticalAlign=bottom;strokeColor=#0F8B8D;fontFamily=Helvetica;fontSize=11;fontColor=#143642;fillColor=#FAE5C7;" parent="145" connectable="0" vertex="1"><mxGeometry x="-1" relative="1" as="geometry"/></mxCell><mxCell id="147" value="1" style="resizable=0;html=1;align=right;verticalAlign=bottom;strokeColor=#0F8B8D;fontFamily=Helvetica;fontSize=11;fontColor=#143642;fillColor=#FAE5C7;" parent="145" connectable="0" vertex="1"><mxGeometry x="1" relative="1" as="geometry"/></mxCell><mxCell id="154" value="" style="endArrow=none;html=1;rounded=0;labelBackgroundColor=default;strokeColor=#A8201A;fontFamily=Helvetica;fontSize=11;fontColor=#143642;fillColor=#FAE5C7;shape=connector;elbow=vertical;startArrow=none;startFill=0;" parent="1" source="2" target="97" edge="1"><mxGeometry relative="1" as="geometry"><mxPoint x="2341" y="2042.001666666667" as="sourcePoint"/><mxPoint x="2320" y="1831.0000000000002" as="targetPoint"/></mxGeometry></mxCell><mxCell id="155" value="1...*" style="resizable=0;html=1;align=left;verticalAlign=bottom;strokeColor=#0F8B8D;fontFamily=Helvetica;fontSize=11;fontColor=#143642;fillColor=#FAE5C7;" parent="154" connectable="0" vertex="1"><mxGeometry x="-1" relative="1" as="geometry"><mxPoint x="-19" y="-5" as="offset"/></mxGeometry></mxCell><mxCell id="156" value="1" style="resizable=0;html=1;align=right;verticalAlign=bottom;strokeColor=#0F8B8D;fontFamily=Helvetica;fontSize=11;fontColor=#143642;fillColor=#FAE5C7;" parent="154" connectable="0" vertex="1"><mxGeometry x="1" relative="1" as="geometry"/></mxCell><mxCell id="176" value="Odkaz na přesný Text &lt;&lt;weak&gt;&gt;" style="swimlane;fontStyle=1;align=center;verticalAlign=top;childLayout=stackLayout;horizontal=1;startSize=26;horizontalStack=0;resizeParent=1;resizeParentMax=0;resizeLast=0;collapsible=1;marginBottom=0;strokeColor=#0F8B8D;fontFamily=Helvetica;fontSize=11;fontColor=#143642;fillColor=#FAE5C7;" parent="1" vertex="1"><mxGeometry x="2350" y="2009.5" width="199" height="34" as="geometry"/></mxCell><mxCell id="178" value="" style="line;strokeWidth=1;fillColor=none;align=left;verticalAlign=middle;spacingTop=-1;spacingLeft=3;spacingRight=3;rotatable=0;labelPosition=right;points=[];portConstraint=eastwest;strokeColor=inherit;fontFamily=Helvetica;fontSize=11;fontColor=#143642;" parent="176" vertex="1"><mxGeometry y="26" width="199" height="8" as="geometry"/></mxCell><mxCell id="184" value="" style="endArrow=none;html=1;rounded=0;labelBackgroundColor=default;strokeColor=#A8201A;fontFamily=Helvetica;fontSize=11;fontColor=#143642;fillColor=#FAE5C7;shape=connector;elbow=vertical;startArrow=none;startFill=0;" parent="1" source="121" target="176" edge="1"><mxGeometry relative="1" as="geometry"><mxPoint x="2676" y="2092.001472868217" as="sourcePoint"/><mxPoint x="2433" y="2083.995658914729" as="targetPoint"/></mxGeometry></mxCell><mxCell id="185" value="0...1" style="resizable=0;html=1;align=left;verticalAlign=bottom;strokeColor=#0F8B8D;fontFamily=Helvetica;fontSize=11;fontColor=#143642;fillColor=#FAE5C7;" parent="184" connectable="0" vertex="1"><mxGeometry x="-1" relative="1" as="geometry"><mxPoint x="6" y="-7" as="offset"/></mxGeometry></mxCell><mxCell id="186" value="0...1" style="resizable=0;html=1;align=right;verticalAlign=bottom;strokeColor=#0F8B8D;fontFamily=Helvetica;fontSize=11;fontColor=#143642;fillColor=#FAE5C7;" parent="184" connectable="0" vertex="1"><mxGeometry x="1" relative="1" as="geometry"><mxPoint x="29" y="25" as="offset"/></mxGeometry></mxCell><mxCell id="187" value="" style="endArrow=none;html=1;rounded=0;labelBackgroundColor=default;strokeColor=#A8201A;fontFamily=Helvetica;fontSize=11;fontColor=#143642;fillColor=#FAE5C7;shape=connector;elbow=vertical;startArrow=none;startFill=0;" parent="1" source="2" target="176" edge="1"><mxGeometry relative="1" as="geometry"><mxPoint x="2339" y="2137" as="sourcePoint"/><mxPoint x="2318" y="2035" as="targetPoint"/></mxGeometry></mxCell><mxCell id="188" value="1" style="resizable=0;html=1;align=left;verticalAlign=bottom;strokeColor=#0F8B8D;fontFamily=Helvetica;fontSize=11;fontColor=#143642;fillColor=#FAE5C7;" parent="187" connectable="0" vertex="1"><mxGeometry x="-1" relative="1" as="geometry"><mxPoint x="10" y="-12" as="offset"/></mxGeometry></mxCell><mxCell id="189" value="1" style="resizable=0;html=1;align=right;verticalAlign=bottom;strokeColor=#0F8B8D;fontFamily=Helvetica;fontSize=11;fontColor=#143642;fillColor=#FAE5C7;" parent="187" connectable="0" vertex="1"><mxGeometry x="1" relative="1" as="geometry"><mxPoint x="-44" y="18" as="offset"/></mxGeometry></mxCell><mxCell id="195" value="" style="endArrow=none;html=1;rounded=0;labelBackgroundColor=default;strokeColor=#A8201A;fontFamily=Helvetica;fontSize=11;fontColor=#143642;fillColor=#FAE5C7;shape=connector;elbow=vertical;startArrow=ERmany;startFill=0;" parent="1" source="201" target="118" edge="1"><mxGeometry relative="1" as="geometry"><mxPoint x="2977.063694267516" y="2342" as="sourcePoint"/><mxPoint x="2545" y="2201.6356589147285" as="targetPoint"/></mxGeometry></mxCell><mxCell id="197" value="0...*" style="resizable=0;html=1;align=right;verticalAlign=bottom;strokeColor=#0F8B8D;fontFamily=Helvetica;fontSize=11;fontColor=#143642;fillColor=#FAE5C7;" parent="195" connectable="0" vertex="1"><mxGeometry x="1" relative="1" as="geometry"><mxPoint x="-7" y="19" as="offset"/></mxGeometry></mxCell><mxCell id="199" value="nejčastější znění" style="text;html=1;strokeColor=none;fillColor=none;align=center;verticalAlign=middle;whiteSpace=wrap;rounded=0;fontColor=#143642;" parent="1" vertex="1"><mxGeometry x="2457" y="2060" width="100.5" height="30" as="geometry"/></mxCell><mxCell id="201" value="oblast" style="swimlane;fontStyle=1;align=center;verticalAlign=top;childLayout=stackLayout;horizontal=1;startSize=26;horizontalStack=0;resizeParent=1;resizeParentMax=0;resizeLast=0;collapsible=1;marginBottom=0;fillColor=#FAE5C7;strokeColor=#0F8B8D;fontColor=#143642;" parent="1" vertex="1"><mxGeometry x="2907" y="2373" width="160" height="116" as="geometry"/></mxCell><mxCell id="239" value="&lt;&lt;PK&gt;&gt; ID " style="text;strokeColor=none;fillColor=none;align=left;verticalAlign=top;spacingLeft=4;spacingRight=4;overflow=hidden;rotatable=0;points=[[0,0.5],[1,0.5]];portConstraint=eastwest;fontColor=#143642;" parent="201" vertex="1"><mxGeometry y="26" width="160" height="24" as="geometry"/></mxCell><mxCell id="202" value="nazev" style="text;strokeColor=none;fillColor=none;align=left;verticalAlign=top;spacingLeft=4;spacingRight=4;overflow=hidden;rotatable=0;points=[[0,0.5],[1,0.5]];portConstraint=eastwest;fontColor=#143642;" parent="201" vertex="1"><mxGeometry y="50" width="160" height="29" as="geometry"/></mxCell><mxCell id="204" value="popis" style="text;strokeColor=none;fillColor=none;align=left;verticalAlign=top;spacingLeft=4;spacingRight=4;overflow=hidden;rotatable=0;points=[[0,0.5],[1,0.5]];portConstraint=eastwest;fontColor=#143642;" parent="201" vertex="1"><mxGeometry y="79" width="160" height="29" as="geometry"/></mxCell><mxCell id="203" value="" style="line;strokeWidth=1;fillColor=none;align=left;verticalAlign=middle;spacingTop=-1;spacingLeft=3;spacingRight=3;rotatable=0;labelPosition=right;points=[];portConstraint=eastwest;strokeColor=#0F8B8D;labelBackgroundColor=#DAD2D8;fontColor=#143642;" parent="201" vertex="1"><mxGeometry y="108" width="160" height="8" as="geometry"/></mxCell><mxCell id="216" value="" style="endArrow=none;html=1;rounded=0;labelBackgroundColor=default;strokeColor=#A8201A;fontFamily=Helvetica;fontSize=11;fontColor=#143642;fillColor=#FAE5C7;shape=connector;elbow=vertical;startArrow=none;startFill=0;" parent="1" source="118" target="121" edge="1"><mxGeometry relative="1" as="geometry"><mxPoint x="2665.844375" y="2217" as="sourcePoint"/><mxPoint x="2608.003229166667" y="2084" as="targetPoint"/></mxGeometry></mxCell><mxCell id="217" value="0...*" style="resizable=0;html=1;align=left;verticalAlign=bottom;strokeColor=#0F8B8D;fontFamily=Helvetica;fontSize=11;fontColor=#143642;fillColor=#FAE5C7;" parent="216" connectable="0" vertex="1"><mxGeometry x="-1" relative="1" as="geometry"><mxPoint x="-29" y="-8" as="offset"/></mxGeometry></mxCell><mxCell id="218" value="1" style="resizable=0;html=1;align=right;verticalAlign=bottom;strokeColor=#0F8B8D;fontFamily=Helvetica;fontSize=11;fontColor=#143642;fillColor=#FAE5C7;" parent="216" connectable="0" vertex="1"><mxGeometry x="1" relative="1" as="geometry"><mxPoint x="30" y="-2" as="offset"/></mxGeometry></mxCell><mxCell id="219" value="0...*" style="resizable=0;html=1;align=right;verticalAlign=bottom;strokeColor=#0F8B8D;fontFamily=Helvetica;fontSize=11;fontColor=#143642;fillColor=#FAE5C7;" parent="1" connectable="0" vertex="1"><mxGeometry x="2974.002562678888" y="2327.9969081283225" as="geometry"><mxPoint y="32" as="offset"/></mxGeometry></mxCell><mxCell id="226" value="" style="endArrow=none;html=1;rounded=0;labelBackgroundColor=default;strokeColor=#A8201A;fontFamily=Helvetica;fontSize=11;fontColor=#143642;fillColor=#FAE5C7;shape=connector;elbow=vertical;startArrow=ERmany;startFill=0;endFill=0;" parent="1" source="118" target="47" edge="1"><mxGeometry relative="1" as="geometry"><mxPoint x="3008.9957377049177" y="2150" as="sourcePoint"/><mxPoint x="3027.2744262295087" y="1927" as="targetPoint"/></mxGeometry></mxCell><mxCell id="227" value="0...*" style="resizable=0;html=1;align=left;verticalAlign=bottom;strokeColor=#0F8B8D;fontFamily=Helvetica;fontSize=11;fontColor=#143642;fillColor=#FAE5C7;" parent="226" connectable="0" vertex="1"><mxGeometry x="-1" relative="1" as="geometry"><mxPoint x="13" y="-10" as="offset"/></mxGeometry></mxCell><mxCell id="228" value="1" style="resizable=0;html=1;align=right;verticalAlign=bottom;strokeColor=#0F8B8D;fontFamily=Helvetica;fontSize=11;fontColor=#143642;fillColor=#FAE5C7;" parent="226" connectable="0" vertex="1"><mxGeometry x="1" relative="1" as="geometry"><mxPoint x="18" y="20" as="offset"/></mxGeometry></mxCell><mxCell id="229" value="AUTOR" style="text;html=1;strokeColor=none;fillColor=none;align=center;verticalAlign=middle;whiteSpace=wrap;rounded=0;fontColor=#143642;rotation=-35;" parent="1" vertex="1"><mxGeometry x="2372" y="1878" width="100.5" height="30" as="geometry"/></mxCell><mxCell id="232" value="" style="endArrow=none;html=1;rounded=0;labelBackgroundColor=default;strokeColor=#A8201A;fontFamily=Helvetica;fontSize=11;fontColor=#143642;fillColor=#FAE5C7;shape=connector;elbow=vertical;startArrow=ERmany;startFill=0;endFill=0;" parent="1" source="83" target="2" edge="1"><mxGeometry relative="1" as="geometry"><mxPoint x="2466" y="2319" as="sourcePoint"/><mxPoint x="2215" y="2113" as="targetPoint"/></mxGeometry></mxCell><mxCell id="233" value="0...*" style="resizable=0;html=1;align=left;verticalAlign=bottom;strokeColor=#0F8B8D;fontFamily=Helvetica;fontSize=11;fontColor=#143642;fillColor=#FAE5C7;" parent="232" connectable="0" vertex="1"><mxGeometry x="-1" relative="1" as="geometry"><mxPoint x="-12" y="-7" as="offset"/></mxGeometry></mxCell><mxCell id="234" value="1" style="resizable=0;html=1;align=right;verticalAlign=bottom;strokeColor=#0F8B8D;fontFamily=Helvetica;fontSize=11;fontColor=#143642;fillColor=#FAE5C7;" parent="232" connectable="0" vertex="1"><mxGeometry x="1" relative="1" as="geometry"><mxPoint x="20" y="-1" as="offset"/></mxGeometry></mxCell><mxCell id="236" value="&amp;lt;&amp;lt;identif&amp;gt;&amp;gt;" style="text;html=1;strokeColor=none;fillColor=none;align=center;verticalAlign=middle;whiteSpace=wrap;rounded=0;fontColor=#143642;rotation=-15;" parent="1" vertex="1"><mxGeometry x="2258" y="2039" width="100.5" height="30" as="geometry"/></mxCell><mxCell id="240" value="" style="endArrow=none;html=1;rounded=0;labelBackgroundColor=default;strokeColor=#A8201A;fontFamily=Helvetica;fontSize=11;fontColor=#143642;fillColor=#FAE5C7;shape=connector;elbow=vertical;startArrow=none;startFill=0;endFill=0;" parent="1" source="47" target="97" edge="1"><mxGeometry relative="1" as="geometry"><mxPoint x="3004" y="2114" as="sourcePoint"/><mxPoint x="3004.8073394495414" y="1924" as="targetPoint"/></mxGeometry></mxCell><mxCell id="241" value="0...1" style="resizable=0;html=1;align=left;verticalAlign=bottom;strokeColor=#0F8B8D;fontFamily=Helvetica;fontSize=11;fontColor=#143642;fillColor=#FAE5C7;" parent="240" connectable="0" vertex="1"><mxGeometry x="-1" relative="1" as="geometry"><mxPoint x="14" y="-10" as="offset"/></mxGeometry></mxCell><mxCell id="242" value="1" style="resizable=0;html=1;align=right;verticalAlign=bottom;strokeColor=#0F8B8D;fontFamily=Helvetica;fontSize=11;fontColor=#143642;fillColor=#FAE5C7;" parent="240" connectable="0" vertex="1"><mxGeometry x="1" relative="1" as="geometry"><mxPoint x="19" y="-3" as="offset"/></mxGeometry></mxCell><mxCell id="243" value="" style="endArrow=none;html=1;rounded=0;labelBackgroundColor=default;strokeColor=#A8201A;fontFamily=Helvetica;fontSize=11;fontColor=#143642;fillColor=#FAE5C7;shape=connector;elbow=vertical;startArrow=none;startFill=0;endFill=0;exitX=0.5;exitY=0;exitDx=0;exitDy=0;" parent="1" source="74" target="47" edge="1"><mxGeometry relative="1" as="geometry"><mxPoint x="2934.138023255814" y="1946.85" as="sourcePoint"/><mxPoint x="2783" y="1853.99812301318" as="targetPoint"/></mxGeometry></mxCell><mxCell id="244" value="0...1" style="resizable=0;html=1;align=left;verticalAlign=bottom;strokeColor=#0F8B8D;fontFamily=Helvetica;fontSize=11;fontColor=#143642;fillColor=#FAE5C7;" parent="243" connectable="0" vertex="1"><mxGeometry x="-1" relative="1" as="geometry"><mxPoint x="14" y="-10" as="offset"/></mxGeometry></mxCell><mxCell id="245" value="1" style="resizable=0;html=1;align=right;verticalAlign=bottom;strokeColor=#0F8B8D;fontFamily=Helvetica;fontSize=11;fontColor=#143642;fillColor=#FAE5C7;" parent="243" connectable="0" vertex="1"><mxGeometry x="1" relative="1" as="geometry"><mxPoint x="-20" y="-1" as="offset"/></mxGeometry></mxCell><mxCell id="246" value="" style="endArrow=none;html=1;rounded=0;labelBackgroundColor=default;strokeColor=#A8201A;fontFamily=Helvetica;fontSize=11;fontColor=#143642;fillColor=#FAE5C7;shape=connector;elbow=vertical;startArrow=ERmany;startFill=0;" parent="1" source="2" target="132" edge="1"><mxGeometry relative="1" as="geometry"><mxPoint x="1867" y="2217.9998795180722" as="sourcePoint"/><mxPoint x="1873" y="2202" as="targetPoint"/></mxGeometry></mxCell><mxCell id="247" value="*" style="resizable=0;html=1;align=left;verticalAlign=bottom;strokeColor=#0F8B8D;fontFamily=Helvetica;fontSize=11;fontColor=#143642;fillColor=#FAE5C7;" parent="246" connectable="0" vertex="1"><mxGeometry x="-1" relative="1" as="geometry"><mxPoint x="-15" as="offset"/></mxGeometry></mxCell><mxCell id="248" value="1" style="resizable=0;html=1;align=right;verticalAlign=bottom;strokeColor=#0F8B8D;fontFamily=Helvetica;fontSize=11;fontColor=#143642;fillColor=#FAE5C7;" parent="246" connectable="0" vertex="1"><mxGeometry x="1" relative="1" as="geometry"><mxPoint x="14" y="-2" as="offset"/></mxGeometry></mxCell><mxCell id="249" value="zdroj dat" style="text;html=1;strokeColor=none;fillColor=none;align=center;verticalAlign=middle;whiteSpace=wrap;rounded=0;fontColor=#143642;rotation=0;" parent="1" vertex="1"><mxGeometry x="1880" y="2100" width="100.5" height="30" as="geometry"/></mxCell></root></mxGraphModel></diagram></mxfile>